# Blender v2.78 (sub 0) OBJ File: 'LighthouseUV.blend'
# www.blender.org
mtllib LighthouseUV.mtl
o Cylinder
v -1.824751 -3.146536 -5.363008
v -1.824751 2.075214 -4.929798
v -0.985432 -3.146536 -5.015350
v -1.291758 2.075214 -4.709024
v -0.637775 -3.146536 -4.176032
v -1.070985 2.075214 -4.176032
v -0.985432 -3.146536 -3.336713
v -1.291758 2.075214 -3.643039
v -1.824751 -3.146536 -2.989056
v -1.824751 2.075214 -3.422266
v -2.664070 -3.146536 -3.336713
v -2.357744 2.075214 -3.643039
v -3.011727 -3.146536 -4.176032
v -2.578517 2.075214 -4.176032
v -2.664070 -3.146536 -5.015350
v -2.357744 2.075214 -4.709024
v -1.824751 1.127385 -4.782194
v -1.396129 1.127385 -4.604653
v -1.218589 1.127385 -4.176032
v -1.396129 1.127385 -3.747410
v -1.824751 1.127385 -3.569869
v -2.253373 1.127385 -3.747410
v -2.430913 1.127385 -4.176032
v -2.253373 1.127385 -4.604653
v -1.824751 1.320508 -4.768311
v -1.405946 1.320508 -4.594836
v -1.232471 1.320508 -4.176032
v -1.405946 1.320508 -3.757227
v -1.824751 1.320508 -3.583752
v -2.243556 1.320508 -3.757227
v -2.417031 1.320508 -4.176032
v -2.243556 1.320508 -4.594836
v -1.824751 1.571004 -4.971897
v -1.261989 1.571004 -4.738794
v -1.028885 1.571004 -4.176032
v -1.261989 1.571004 -3.613270
v -1.824751 1.571004 -3.380166
v -2.387513 1.571004 -3.613270
v -2.620617 1.571004 -4.176032
v -2.387513 1.571004 -4.738793
v -1.824751 2.056767 -4.929824
v -1.291739 2.056767 -4.709044
v -1.070958 2.056767 -4.176032
v -1.291739 2.056767 -3.643020
v -1.824751 2.056767 -3.422239
v -2.357763 2.056767 -3.643020
v -2.578544 2.056767 -4.176032
v -2.357763 2.056767 -4.709044
v -0.988413 -3.101840 -5.012369
v -0.641991 -3.101840 -4.176032
v -0.988413 -3.101840 -3.339694
v -1.824751 -3.101840 -2.993271
v -2.661089 -3.101840 -3.339694
v -3.007511 -3.101840 -4.176032
v -2.661089 -3.101840 -5.012369
v -1.824751 -3.101840 -5.358792
v -1.261959 1.665096 -4.738823
v -1.028843 1.665096 -4.176032
v -1.261959 1.665096 -3.613240
v -1.824751 1.665096 -3.380124
v -2.387543 1.665096 -3.613240
v -2.620659 1.665096 -4.176032
v -2.387543 1.665096 -4.738823
v -1.824751 1.665096 -4.971939
v -1.824751 1.671339 -4.930512
v -1.291253 1.671339 -4.709530
v -1.070270 1.671339 -4.176032
v -1.291253 1.671339 -3.642533
v -1.824751 1.671339 -3.421551
v -2.358249 1.671339 -3.642533
v -2.579232 1.671339 -4.176032
v -2.358249 1.671339 -4.709530
v -1.534001 1.670481 -4.466782
v -1.824751 1.670481 -4.587214
v -1.413568 1.670481 -4.176032
v -1.534001 1.670481 -3.885281
v -1.824751 1.670481 -3.764849
v -2.115501 1.670481 -3.885281
v -2.235934 1.670481 -4.176032
v -2.115501 1.670481 -4.466782
v -1.308723 1.670481 -4.692060
v -1.824751 1.670481 -4.905806
v -1.094977 1.670481 -4.176032
v -1.308723 1.670481 -3.660003
v -1.824751 1.670481 -3.446257
v -2.340780 1.670481 -3.660003
v -2.554525 1.670481 -4.176032
v -2.340780 1.670481 -4.692060
v -1.808717 2.849654 -4.192065
v -1.824751 2.849654 -4.198707
v -1.802076 2.849654 -4.176032
v -1.808717 2.849654 -4.159998
v -1.824751 2.849654 -4.153357
v -1.840785 2.849654 -4.159998
v -1.847426 2.849654 -4.176032
v -1.840785 2.849654 -4.192065
v -1.781951 2.624894 -4.133231
v -1.824751 2.624894 -4.115503
v -1.781951 2.624894 -4.218832
v -1.764222 2.624894 -4.176032
v -1.885280 2.624894 -4.176032
v -1.867551 2.624894 -4.218832
v -1.867551 2.624894 -4.133231
v -1.824751 2.624894 -4.236560
v -1.824751 2.436609 -3.764849
v -1.413568 2.436609 -4.176032
v -2.115501 2.436609 -4.466782
v -2.115501 2.436609 -3.885281
v -1.534001 2.436609 -3.885281
v -1.534001 2.436609 -4.466782
v -2.235934 2.436609 -4.176032
v -1.824751 2.436609 -4.587214
v -1.782111 2.776322 -4.133392
v -1.782111 2.776322 -4.218671
v -1.885053 2.776322 -4.176032
v -1.824751 2.776322 -4.236333
v -1.824751 2.776322 -4.115730
v -1.764449 2.776322 -4.176032
v -1.867391 2.776322 -4.218671
v -1.867391 2.776322 -4.133392
v -1.824751 2.069640 -3.764849
v -1.413568 2.069640 -4.176032
v -2.115501 2.069640 -4.466782
v -2.115501 2.069640 -3.885281
v -1.534001 2.069640 -3.885281
v -1.534001 2.069640 -4.466782
v -2.235934 2.069640 -4.176032
v -1.824751 2.069640 -4.587214
vt 0.6549 0.5614
vt 0.6549 0.5634
vt 0.5942 0.5634
vt 0.5942 0.5614
vt 0.0784 0.5614
vt 0.0784 0.5634
vt 0.0177 0.5634
vt 0.0177 0.5614
vt 0.1745 0.5614
vt 0.1745 0.5634
vt 0.1138 0.5634
vt 0.1138 0.5614
vt 0.5588 0.5614
vt 0.5588 0.5634
vt 0.4981 0.5634
vt 0.4981 0.5614
vt 0.2706 0.5614
vt 0.2706 0.5634
vt 0.2099 0.5634
vt 0.2099 0.5614
vt 0.4628 0.5614
vt 0.4628 0.5634
vt 0.4020 0.5634
vt 0.4020 0.5614
vt 0.6903 0.5634
vt 0.7510 0.5634
vt 0.7501 0.6060
vt 0.6913 0.6060
vt 0.3667 0.5614
vt 0.3667 0.5634
vt 0.3060 0.5634
vt 0.3060 0.5614
vt 0.7510 0.5614
vt 0.6903 0.5614
vt 0.9322 0.0002
vt 0.9998 0.0678
vt 0.9998 0.1634
vt 0.9322 0.2311
vt 0.8366 0.2311
vt 0.7689 0.1634
vt 0.7689 0.0678
vt 0.8366 0.0002
vt 0.7683 0.0050
vt 0.7451 0.4535
vt 0.6963 0.4535
vt 0.6730 0.0050
vt 0.3839 0.0050
vt 0.3607 0.4535
vt 0.3119 0.4535
vt 0.2887 0.0050
vt 0.4800 0.0050
vt 0.4568 0.4535
vt 0.4080 0.4535
vt 0.3848 0.0050
vt 0.2879 0.0050
vt 0.2646 0.4535
vt 0.2158 0.4535
vt 0.1926 0.0050
vt 0.5761 0.0050
vt 0.5529 0.4535
vt 0.5041 0.4535
vt 0.4809 0.0050
vt 0.1918 0.0050
vt 0.1685 0.4535
vt 0.1197 0.4535
vt 0.0965 0.0050
vt 0.0957 0.0050
vt 0.0725 0.4535
vt 0.0236 0.4535
vt 0.0004 0.0050
vt 0.6722 0.0050
vt 0.6490 0.4535
vt 0.6002 0.4535
vt 0.5769 0.0050
vt 0.7445 0.4739
vt 0.6968 0.4739
vt 0.3602 0.4739
vt 0.3125 0.4739
vt 0.4562 0.4739
vt 0.4085 0.4739
vt 0.2641 0.4739
vt 0.2164 0.4739
vt 0.5523 0.4739
vt 0.5046 0.4739
vt 0.1680 0.4739
vt 0.1203 0.4739
vt 0.0719 0.4739
vt 0.0242 0.4739
vt 0.6484 0.4739
vt 0.6007 0.4739
vt 0.7527 0.5069
vt 0.6886 0.5069
vt 0.3684 0.5069
vt 0.3043 0.5069
vt 0.4644 0.5069
vt 0.4003 0.5069
vt 0.2723 0.5069
vt 0.2082 0.5069
vt 0.5605 0.5069
vt 0.4964 0.5069
vt 0.1762 0.5069
vt 0.1121 0.5069
vt 0.0801 0.5069
vt 0.0160 0.5069
vt 0.6566 0.5069
vt 0.5925 0.5069
vt 0.7510 0.5209
vt 0.6903 0.5209
vt 0.3667 0.5209
vt 0.3059 0.5209
vt 0.4628 0.5209
vt 0.4020 0.5209
vt 0.2706 0.5209
vt 0.2098 0.5209
vt 0.5589 0.5209
vt 0.4981 0.5209
vt 0.1745 0.5209
vt 0.1137 0.5209
vt 0.0784 0.5209
vt 0.0177 0.5209
vt 0.6550 0.5209
vt 0.5942 0.5209
vt 0.6724 0.0002
vt 0.5768 0.0002
vt 0.0958 0.0002
vt 0.0002 0.0002
vt 0.1919 0.0002
vt 0.0963 0.0002
vt 0.5763 0.0002
vt 0.4807 0.0002
vt 0.2880 0.0002
vt 0.1924 0.0002
vt 0.4802 0.0002
vt 0.3846 0.0002
vt 0.3841 0.0002
vt 0.2885 0.0002
vt 0.7685 0.0002
vt 0.6729 0.0002
vt 0.6566 0.5168
vt 0.5925 0.5168
vt 0.0801 0.5168
vt 0.0160 0.5168
vt 0.1762 0.5168
vt 0.1121 0.5168
vt 0.5605 0.5168
vt 0.4964 0.5168
vt 0.2723 0.5168
vt 0.2082 0.5168
vt 0.4644 0.5168
vt 0.4003 0.5168
vt 0.3684 0.5168
vt 0.3043 0.5168
vt 0.7527 0.5168
vt 0.6886 0.5168
vt 0.5261 0.7730
vt 0.5309 0.7730
vt 0.5294 0.7815
vt 0.5276 0.7815
vt 0.6540 0.6060
vt 0.5952 0.6060
vt 0.1735 0.6060
vt 0.1147 0.6060
vt 0.4618 0.6060
vt 0.4030 0.6060
vt 0.5579 0.6060
vt 0.4991 0.6060
vt 0.3657 0.6060
vt 0.3069 0.6060
vt 0.0774 0.6060
vt 0.0187 0.6060
vt 0.2696 0.6060
vt 0.2108 0.6060
vt 0.6411 0.6370
vt 0.6080 0.6370
vt 0.0646 0.6370
vt 0.0315 0.6370
vt 0.1607 0.6370
vt 0.1276 0.6370
vt 0.5450 0.6370
vt 0.5119 0.6370
vt 0.2568 0.6370
vt 0.2237 0.6370
vt 0.4490 0.6370
vt 0.4158 0.6370
vt 0.3529 0.6370
vt 0.3198 0.6370
vt 0.7372 0.6370
vt 0.7041 0.6370
vt 0.7734 0.2328
vt 0.7734 0.2347
vt 0.7721 0.2359
vt 0.7702 0.2359
vt 0.7689 0.2347
vt 0.7689 0.2328
vt 0.7702 0.2315
vt 0.7721 0.2315
vt 0.0456 0.7730
vt 0.0505 0.7730
vt 0.0490 0.7815
vt 0.0471 0.7815
vt 0.3339 0.7730
vt 0.3387 0.7730
vt 0.3372 0.7815
vt 0.3354 0.7815
vt 0.2378 0.7730
vt 0.2426 0.7730
vt 0.2411 0.7815
vt 0.2393 0.7815
vt 0.1417 0.7730
vt 0.1466 0.7730
vt 0.1450 0.7815
vt 0.1432 0.7815
vt 0.6221 0.7730
vt 0.6270 0.7730
vt 0.6255 0.7815
vt 0.6237 0.7815
vt 0.7182 0.7730
vt 0.7231 0.7730
vt 0.7216 0.7815
vt 0.7198 0.7815
vt 0.4300 0.7730
vt 0.4348 0.7730
vt 0.4333 0.7815
vt 0.4315 0.7815
vt 0.4158 0.7176
vt 0.4490 0.7176
vt 0.4348 0.7571
vt 0.4300 0.7571
vt 0.7041 0.7176
vt 0.7372 0.7176
vt 0.7231 0.7571
vt 0.7182 0.7571
vt 0.6080 0.7176
vt 0.6411 0.7176
vt 0.6270 0.7571
vt 0.6221 0.7571
vt 0.1276 0.7176
vt 0.1607 0.7176
vt 0.1466 0.7571
vt 0.1417 0.7571
vt 0.2237 0.7176
vt 0.2568 0.7176
vt 0.2427 0.7571
vt 0.2378 0.7571
vt 0.3198 0.7176
vt 0.3529 0.7176
vt 0.3387 0.7571
vt 0.3339 0.7571
vt 0.0315 0.7176
vt 0.0646 0.7176
vt 0.0505 0.7571
vt 0.0456 0.7571
vt 0.5119 0.7176
vt 0.5450 0.7176
vt 0.5309 0.7571
vt 0.5260 0.7571
vt 0.5119 0.6790
vt 0.5450 0.6790
vt 0.0315 0.6790
vt 0.0646 0.6790
vt 0.3198 0.6790
vt 0.3529 0.6790
vt 0.2237 0.6790
vt 0.2568 0.6790
vt 0.1276 0.6790
vt 0.1607 0.6790
vt 0.6080 0.6790
vt 0.6411 0.6790
vt 0.7041 0.6790
vt 0.7372 0.6790
vt 0.4158 0.6790
vt 0.4490 0.6790
vn 0.3827 0.0013 -0.9239
vn 0.9239 0.0013 -0.3827
vn 0.9239 0.0013 0.3827
vn 0.3827 0.0013 0.9239
vn -0.3827 0.0013 0.9239
vn -0.9239 0.0013 0.3827
vn 0.3821 0.0547 0.9225
vn -0.9239 0.0013 -0.3827
vn -0.3827 0.0013 -0.9239
vn 0.0000 -1.0000 0.0000
vn -0.3797 0.1250 -0.9166
vn -0.9166 0.1250 -0.3797
vn -0.9166 0.1250 0.3797
vn -0.3797 0.1250 0.9166
vn 0.3797 0.1250 0.9166
vn 0.9166 0.1250 0.3797
vn 0.9166 0.1250 -0.3797
vn 0.3797 0.1250 -0.9166
vn -0.3818 0.0663 -0.9218
vn -0.9218 0.0663 -0.3818
vn -0.9218 0.0663 0.3818
vn -0.3818 0.0663 0.9218
vn 0.3818 0.0663 0.9218
vn 0.9218 0.0663 0.3818
vn 0.9218 0.0663 -0.3818
vn 0.3818 0.0663 -0.9218
vn -0.3060 -0.6004 -0.7388
vn -0.7388 -0.6004 -0.3060
vn -0.7388 -0.6004 0.3060
vn -0.3060 -0.6004 0.7388
vn 0.3060 -0.6004 0.7388
vn 0.7388 -0.6004 0.3060
vn 0.7388 -0.6004 -0.3060
vn 0.3060 -0.6004 -0.7388
vn -0.3827 0.0016 -0.9239
vn -0.9239 0.0016 -0.3827
vn -0.9239 0.0016 0.3827
vn -0.3827 0.0016 0.9239
vn 0.3827 0.0016 0.9239
vn 0.9239 0.0016 0.3827
vn 0.9239 0.0016 -0.3827
vn 0.3827 0.0016 -0.9239
vn 0.3812 0.0868 -0.9204
vn 0.9204 0.0868 -0.3812
vn 0.9204 0.0868 0.3812
vn 0.3812 0.0868 0.9204
vn -0.3812 0.0868 0.9204
vn -0.9204 0.0868 0.3812
vn -0.9204 0.0868 -0.3812
vn -0.3812 0.0868 -0.9204
vn 0.3827 -0.0004 -0.9239
vn 0.9239 -0.0004 -0.3827
vn 0.9239 -0.0004 0.3827
vn 0.3827 -0.0004 0.9239
vn -0.3827 -0.0004 0.9239
vn -0.9239 -0.0004 0.3827
vn -0.9239 -0.0004 -0.3827
vn -0.3827 -0.0004 -0.9239
vn 0.0616 0.9870 -0.1487
vn 0.1487 0.9870 -0.0616
vn 0.1487 0.9870 0.0616
vn 0.0616 0.9870 0.1487
vn -0.0616 0.9870 0.1487
vn -0.1487 0.9870 0.0616
vn -0.1487 0.9870 -0.0616
vn -0.0616 0.9870 -0.1487
vn 0.3458 0.4283 0.8348
vn -0.3821 0.0547 0.9225
vn -0.9225 0.0547 -0.3821
vn 0.9225 0.0547 -0.3821
vn -0.3821 0.0547 -0.9225
vn 0.9225 0.0547 0.3821
vn -0.9225 0.0547 0.3821
vn 0.3821 0.0547 -0.9225
vn 0.0000 1.0000 0.0000
vn 0.8348 0.4284 -0.3458
vn -0.8348 0.4284 -0.3458
vn -0.3458 0.4284 0.8348
vn 0.8348 0.4284 0.3458
vn 0.3458 0.4283 -0.8348
vn -0.3458 0.4284 -0.8348
vn -0.8348 0.4284 0.3458
vn -0.4642 0.8646 0.1923
vn -0.1923 0.8646 -0.4642
vn 0.1923 0.8646 -0.4642
vn 0.4642 0.8646 0.1923
vn -0.1923 0.8646 0.4642
vn -0.4642 0.8646 -0.1923
vn 0.4642 0.8646 -0.1923
vn 0.1923 0.8646 0.4642
vn 0.3827 0.0000 0.9239
vn 0.9239 0.0000 -0.3827
vn -0.9239 0.0000 -0.3827
vn -0.3827 0.0000 0.9239
vn 0.9239 0.0000 0.3827
vn 0.3827 0.0000 -0.9239
vn -0.3827 0.0000 -0.9239
vn -0.9239 0.0000 0.3827
vn -0.9239 0.0014 0.3827
vn -0.3827 0.0014 -0.9239
vn 0.3827 0.0014 -0.9239
vn 0.9239 0.0014 0.3827
vn -0.3827 0.0014 0.9239
vn -0.9239 0.0014 -0.3827
vn 0.9239 0.0014 -0.3827
vn 0.3827 0.0014 0.9239
usemtl Material.007
s off
f 41/1/1 2/2/1 4/3/1 42/4/1
f 42/5/2 4/6/2 6/7/2 43/8/2
f 43/9/3 6/10/3 8/11/3 44/12/3
f 44/13/4 8/14/4 10/15/4 45/16/4
f 45/17/5 10/18/5 12/19/5 46/20/5
f 46/21/6 12/22/6 14/23/6 47/24/6
f 2/25/7 16/26/7 88/27/7 82/28/7
f 47/29/8 14/30/8 16/31/8 48/32/8
f 48/33/9 16/26/9 2/25/9 41/34/9
f 1/35/10 3/36/10 5/37/10 7/38/10 9/39/10 11/40/10 13/41/10 15/42/10
f 55/43/11 24/44/11 17/45/11 56/46/11
f 54/47/12 23/48/12 24/49/12 55/50/12
f 53/51/13 22/52/13 23/53/13 54/54/13
f 52/55/14 21/56/14 22/57/14 53/58/14
f 51/59/15 20/60/15 21/61/15 52/62/15
f 50/63/16 19/64/16 20/65/16 51/66/16
f 49/67/17 18/68/17 19/69/17 50/70/17
f 56/71/18 17/72/18 18/73/18 49/74/18
f 24/44/19 32/75/19 25/76/19 17/45/19
f 23/48/20 31/77/20 32/78/20 24/49/20
f 22/52/21 30/79/21 31/80/21 23/53/21
f 21/56/22 29/81/22 30/82/22 22/57/22
f 20/60/23 28/83/23 29/84/23 21/61/23
f 19/64/24 27/85/24 28/86/24 20/65/24
f 18/68/25 26/87/25 27/88/25 19/69/25
f 17/72/26 25/89/26 26/90/26 18/73/26
f 32/75/27 40/91/27 33/92/27 25/76/27
f 31/77/28 39/93/28 40/94/28 32/78/28
f 30/79/29 38/95/29 39/96/29 31/80/29
f 29/81/30 37/97/30 38/98/30 30/82/30
f 28/83/31 36/99/31 37/100/31 29/84/31
f 27/85/32 35/101/32 36/102/32 28/86/32
f 26/87/33 34/103/33 35/104/33 27/88/33
f 25/89/34 33/105/34 34/106/34 26/90/34
f 72/107/35 48/33/35 41/34/35 65/108/35
f 71/109/36 47/29/36 48/32/36 72/110/36
f 70/111/37 46/21/37 47/24/37 71/112/37
f 69/113/38 45/17/38 46/20/38 70/114/38
f 68/115/39 44/13/39 45/16/39 69/116/39
f 67/117/40 43/9/40 44/12/40 68/118/40
f 66/119/41 42/5/41 43/8/41 67/120/41
f 65/121/42 41/1/42 42/4/42 66/122/42
f 1/123/43 56/71/43 49/74/43 3/124/43
f 3/125/44 49/67/44 50/70/44 5/126/44
f 5/127/45 50/63/45 51/66/45 7/128/45
f 7/129/46 51/59/46 52/62/46 9/130/46
f 9/131/47 52/55/47 53/58/47 11/132/47
f 11/133/48 53/51/48 54/54/48 13/134/48
f 13/135/49 54/47/49 55/50/49 15/136/49
f 15/137/50 55/43/50 56/46/50 1/138/50
f 33/105/51 64/139/51 57/140/51 34/106/51
f 34/103/52 57/141/52 58/142/52 35/104/52
f 35/101/53 58/143/53 59/144/53 36/102/53
f 36/99/54 59/145/54 60/146/54 37/100/54
f 37/97/55 60/147/55 61/148/55 38/98/55
f 38/95/56 61/149/56 62/150/56 39/96/56
f 39/93/57 62/151/57 63/152/57 40/94/57
f 40/91/58 63/153/58 64/154/58 33/92/58
f 64/139/59 65/121/59 66/122/59 57/140/59
f 57/141/60 66/119/60 67/120/60 58/142/60
f 58/143/61 67/117/61 68/118/61 59/144/61
f 59/145/62 68/115/62 69/116/62 60/146/62
f 60/147/63 69/113/63 70/114/63 61/148/63
f 61/149/64 70/111/64 71/112/64 62/150/64
f 62/151/65 71/109/65 72/110/65 63/152/65
f 63/153/66 72/107/66 65/108/66 64/154/66
f 117/155/67 113/156/67 92/157/67 93/158/67
f 4/3/68 2/2/68 82/159/68 81/160/68
f 8/11/69 6/10/69 83/161/69 84/162/69
f 14/23/70 12/22/70 86/163/70 87/164/70
f 10/15/71 8/14/71 84/165/71 85/166/71
f 16/31/72 14/30/72 87/167/72 88/168/72
f 6/7/73 4/6/73 81/169/73 83/170/73
f 12/19/74 10/18/74 85/171/74 86/172/74
f 74/173/75 73/174/75 81/160/75 82/159/75
f 73/175/75 75/176/75 83/170/75 81/169/75
f 75/177/75 76/178/75 84/162/75 83/161/75
f 76/179/75 77/180/75 85/166/75 84/165/75
f 77/181/75 78/182/75 86/172/75 85/171/75
f 78/183/75 79/184/75 87/164/75 86/163/75
f 79/185/75 80/186/75 88/168/75 87/167/75
f 80/187/75 74/188/75 82/28/75 88/27/75
f 89/189/75 90/190/75 96/191/75 95/192/75 94/193/75 93/194/75 92/195/75 91/196/75
f 118/197/76 114/198/76 89/199/76 91/200/76
f 119/201/77 115/202/77 95/203/77 96/204/77
f 120/205/78 117/206/78 93/207/78 94/208/78
f 113/209/79 118/210/79 91/211/79 92/212/79
f 114/213/80 116/214/80 90/215/80 89/216/80
f 116/217/81 119/218/81 96/219/81 90/220/81
f 115/221/82 120/222/82 94/223/82 95/224/82
f 111/225/83 108/226/83 103/227/83 101/228/83
f 112/229/84 107/230/84 102/231/84 104/232/84
f 110/233/85 112/234/85 104/235/85 99/236/85
f 109/237/86 106/238/86 100/239/86 97/240/86
f 108/241/87 105/242/87 98/243/87 103/244/87
f 107/245/88 111/246/88 101/247/88 102/248/88
f 106/249/89 110/250/89 99/251/89 100/252/89
f 105/253/90 109/254/90 97/255/90 98/256/90
f 121/257/91 125/258/91 109/254/91 105/253/91
f 122/259/92 126/260/92 110/250/92 106/249/92
f 123/261/93 127/262/93 111/246/93 107/245/93
f 124/263/94 121/264/94 105/242/94 108/241/94
f 125/265/95 122/266/95 106/238/95 109/237/95
f 126/267/96 128/268/96 112/234/96 110/233/96
f 128/269/97 123/270/97 107/230/97 112/229/97
f 127/271/98 124/272/98 108/226/98 111/225/98
f 101/228/99 103/227/99 120/222/99 115/221/99
f 104/232/100 102/231/100 119/218/100 116/217/100
f 99/236/101 104/235/101 116/214/101 114/213/101
f 97/240/102 100/239/102 118/210/102 113/209/102
f 103/244/103 98/243/103 117/206/103 120/205/103
f 102/248/104 101/247/104 115/202/104 119/201/104
f 100/252/105 99/251/105 114/198/105 118/197/105
f 98/256/106 97/255/106 113/156/106 117/155/106
f 79/184/98 78/183/98 124/272/98 127/271/98
f 74/188/97 80/187/97 123/270/97 128/269/97
f 73/174/96 74/173/96 128/268/96 126/267/96
f 76/178/95 75/177/95 122/266/95 125/265/95
f 78/182/94 77/181/94 121/264/94 124/263/94
f 80/186/93 79/185/93 127/262/93 123/261/93
f 75/176/92 73/175/92 126/260/92 122/259/92
f 77/180/91 76/179/91 125/258/91 121/257/91
